<svg version="1.1" id="Layer_1" xmlns="http://www.w3.org/2000/svg" xmlns:xlink="http://www.w3.org/1999/xlink" x="0px" y="0px"
	 width="100%" viewBox="0 0 400 358" enable-background="new 0 0 400 358" xml:space="preserve">
<path fill="#5EB0C1" opacity="1.000000" stroke="none" 
	d="
M78.262970,358.726959 
	C53.683548,359.000000 29.366539,358.921387 5.051287,359.092285 
	C1.741555,359.115540 0.894693,358.586609 0.898413,355.056061 
	C1.021239,238.470459 1.017587,121.884697 0.914246,5.299051 
	C0.911176,1.836267 1.447221,0.880915 5.195394,0.889962 
	C68.817543,1.043534 132.440170,1.000000 196.531342,1.000000 
	C197.111938,1.234739 197.223862,1.469477 197.179047,2.061111 
	C193.461731,5.088501 189.132278,4.744235 185.083588,5.336324 
	C149.953613,10.473816 125.670670,30.318441 109.324730,60.992348 
	C106.734558,65.852913 104.346413,70.817322 103.057541,76.194580 
	C102.063202,80.343018 99.638222,82.684113 95.572922,84.013008 
	C83.345360,88.010040 71.772339,93.123421 61.499542,101.296906 
	C40.446449,118.047691 42.319706,142.503525 57.631107,159.073029 
	C65.134109,167.192520 74.012512,173.686249 83.930672,178.676880 
	C86.905647,180.173813 89.896858,181.638184 92.868484,183.141739 
	C100.539337,187.022995 100.492920,187.277466 99.307030,195.841492 
	C97.761116,207.005447 99.644104,217.417587 107.114891,226.335770 
	C107.435577,226.718567 107.671852,227.251419 108.091667,227.459839 
	C115.860039,231.316635 118.743835,238.748825 122.226761,245.968048 
	C126.452278,254.726471 133.686081,260.998810 141.545044,266.472229 
	C148.244690,271.138245 155.254700,275.313232 162.571899,278.960266 
	C168.289688,281.810150 170.550491,286.064056 169.895325,292.297882 
	C169.512253,295.942657 167.630432,297.777405 163.955231,297.436401 
	C144.482712,295.629608 127.237701,303.040558 110.604286,311.409149 
	C96.671082,318.419220 89.363274,331.558685 84.030281,345.779572 
	C82.414406,350.088440 82.052971,354.968170 78.262970,358.726959 
z"/>
<path fill="#5EB0C1" opacity="1.000000" stroke="none" 
	d="
M211.832001,1.359296 
	C273.455292,1.000000 334.910614,1.030536 396.365692,0.920269 
	C399.863983,0.913992 401.118347,1.308512 401.113464,5.359440 
	C400.972870,121.774559 400.974304,238.189911 401.109344,354.605042 
	C401.113953,358.581055 399.964539,359.132507 396.400269,359.088989 
	C379.914734,358.887512 363.425323,359.000000 346.468658,359.000000 
	C344.339020,357.759308 343.327423,356.176697 342.832520,354.104462 
	C342.059998,350.870026 340.858948,347.750671 339.829590,344.585663 
	C333.256775,324.376160 320.272064,310.322083 299.768524,304.087585 
	C285.491028,299.746246 271.385590,294.423126 256.177094,293.942841 
	C254.172089,293.879578 252.130280,293.501434 251.401764,290.751312 
	C252.903671,288.897369 252.295044,286.826691 252.583313,285.300446 
	C251.644363,286.196014 253.711349,288.540192 250.973755,289.044495 
	C247.626251,282.229126 248.358032,275.495514 250.393143,268.457031 
	C252.094666,267.542969 252.401321,268.492126 252.459335,269.524475 
	C252.568802,271.472260 252.485153,273.426666 252.506226,275.378204 
	C252.441803,273.154297 252.611267,270.926941 252.227234,268.390686 
	C251.402145,263.843719 254.787704,262.931427 257.495544,262.422699 
	C264.229614,261.157532 268.903534,257.250732 272.563629,251.869003 
	C274.452423,249.091766 276.806915,247.319427 280.085083,246.584167 
	C292.743744,243.744843 301.372131,235.970245 306.373077,224.243057 
	C308.275696,219.781509 311.747986,218.679016 315.808228,218.121490 
	C323.950012,217.003555 331.722137,214.745697 339.118317,211.121429 
	C350.328003,205.628464 357.718719,197.341629 359.060852,184.488251 
	C359.183655,183.312225 359.546814,182.212494 360.580811,181.040710 
	C361.371246,180.722595 361.914612,180.786346 362.170471,181.220047 
	C362.697906,182.114090 362.443817,183.145584 362.460297,183.432541 
	C361.691132,180.802567 362.494843,177.447006 362.399750,174.111572 
	C362.206940,173.450943 361.540192,174.377274 362.147522,174.102325 
	C362.379486,173.997314 362.525452,174.098404 362.491699,174.394989 
	C362.347961,175.657272 362.929413,177.050827 361.461731,178.191330 
	C359.590851,177.418839 359.272217,175.929764 359.071991,174.440430 
	C357.218719,160.656448 349.868378,149.685638 341.037994,139.543152 
	C335.674988,133.383224 329.606201,127.821190 323.117371,122.956566 
	C316.885132,118.284325 315.256927,112.257004 314.969116,105.179657 
	C314.043671,82.425392 306.763794,61.775509 293.209320,43.588764 
	C277.336945,22.291954 255.674866,10.375693 229.626129,5.917421 
	C223.936539,4.943642 217.900833,5.907671 212.264740,2.720983 
	C211.874512,2.203727 211.769257,1.961160 211.832001,1.359296 
z"/>
<path fill="#191D15" opacity="1.000000" stroke="none" 
	d="
M252.107452,289.858276 
	C251.869873,292.707703 253.874710,292.062378 255.427795,292.153076 
	C275.328278,293.315369 294.157959,299.025818 312.064209,307.195709 
	C326.528290,313.795166 335.286316,326.247162 340.709900,341.034973 
	C342.776031,346.668365 344.642639,352.354126 345.850769,358.638275 
	C256.979095,359.000000 167.958206,359.000000 78.468658,359.000000 
	C81.707909,344.126923 87.163254,330.138092 97.934395,318.741913 
	C107.506256,308.614655 120.149963,304.257996 132.889664,300.297882 
	C143.478836,297.006226 154.071320,292.779541 165.590302,295.887543 
	C166.523987,296.139435 167.569458,296.196564 168.257889,295.139496 
	C169.840851,292.708984 166.732407,282.970123 163.880600,281.580444 
	C152.463333,276.016937 141.566010,269.660614 131.861664,261.357605 
	C124.279915,254.870697 119.343269,246.748459 116.314499,237.365341 
	C115.805244,235.787643 115.581085,234.354324 113.705688,233.487823 
	C103.628906,228.831955 99.397713,219.830444 97.407066,209.756210 
	C96.255272,203.927155 95.990120,197.705582 98.387939,191.999802 
	C99.880615,188.447876 97.776726,187.597260 95.413239,186.547501 
	C82.857811,180.970917 71.011009,174.217407 60.764782,164.975082 
	C47.919830,153.388641 40.973297,139.372910 45.089573,121.779999 
	C47.872185,109.887154 56.553116,102.145706 66.122597,95.432892 
	C75.371353,88.945068 85.810287,84.979218 96.539322,81.768677 
	C98.874458,81.069923 100.080292,79.999763 100.793663,77.609047 
	C114.006042,33.330555 149.971069,5.007388 196.589325,2.270238 
	C201.702591,0.745485 206.497772,1.797200 211.617294,1.873152 
	C222.781662,3.107984 233.570480,4.097331 243.980042,7.316255 
	C280.358856,18.565561 302.238434,43.617069 312.833801,79.522705 
	C315.975159,90.168060 316.961670,101.071724 317.592377,112.037903 
	C317.772858,115.175545 319.081635,117.182281 321.431061,119.116295 
	C330.942352,126.945732 340.648407,134.645493 347.910645,144.755798 
	C354.856110,154.425140 360.782043,164.619980 361.482269,177.410217 
	C361.906311,178.650681 361.966492,179.497910 361.750061,180.776367 
	C360.695282,186.063751 360.301819,191.025818 358.129272,195.652283 
	C351.986908,208.732574 340.045929,213.687225 327.468964,217.581375 
	C322.732941,219.047806 317.708313,219.656570 312.774292,220.375153 
	C310.552277,220.698746 309.524780,221.361816 308.645538,223.678986 
	C303.477753,237.298981 293.853271,245.910431 279.276520,248.479813 
	C277.570312,248.780563 276.232086,249.078751 275.252197,250.822906 
	C271.380676,257.713867 266.500153,263.339569 257.806610,263.979462 
	C255.602371,264.141663 253.865875,265.660706 252.043930,267.408447 
	C249.828156,274.714752 250.977890,281.777466 251.432587,289.220032 
	C251.910675,289.634247 252.191467,289.640900 252.107452,289.858276 
z"/>
<path fill="#69A8B2" opacity="1.000000" stroke="none" 
	d="
M211.995331,1.879343 
	C207.304977,2.227782 202.615829,2.283105 197.467789,2.248957 
	C197.006866,1.966242 197.004837,1.772999 197.001404,1.289878 
	C201.689255,1.000000 206.378510,1.000000 211.533875,1.000000 
	C211.998856,1.195409 211.997696,1.390818 211.995331,1.879343 
z"/>
<path fill="#54C1D3" opacity="1.000000" stroke="none" 
	d="
M361.764709,181.495758 
	C361.580414,180.347122 361.514526,179.502060 361.538147,178.239960 
	C361.857574,176.082748 362.087524,174.342590 362.317444,172.602432 
	C362.445312,172.598709 362.573181,172.594986 362.701050,172.591278 
	C362.701050,176.835236 362.701050,181.079208 362.701050,185.323166 
	C362.607422,185.364532 362.513794,185.405884 362.420166,185.447235 
	C362.241150,184.231262 362.062134,183.015289 361.764709,181.495758 
z"/>
<path fill="#4CBED2" opacity="1.000000" stroke="none" 
	d="
M251.936096,267.727631 
	C253.858765,271.194885 252.884827,274.831085 251.964981,278.458313 
	C251.964981,275.208649 251.964981,271.958954 251.926880,268.230469 
	C251.888763,267.751678 251.957718,267.757812 251.936096,267.727631 
z"/>
<path fill="#52C1D4" opacity="1.000000" stroke="none" 
	d="
M252.023636,289.796936 
	C251.742676,290.069031 251.558105,289.879974 251.593994,289.753784 
	C251.844009,287.581116 252.058121,285.534607 252.272247,283.488098 
	C253.017548,285.533203 253.405243,287.547272 252.023636,289.796936 
z"/>
<path fill="#54C1D3" opacity="1.000000" stroke="none" 
	d="
M362.483704,168.512238 
	C362.473755,168.488342 362.493683,168.536148 362.483704,168.512238 
z"/>
<path fill="#DE8A5B" opacity="1.000000" stroke="none" 
	d="
M128.951630,248.265289 
	C128.075470,247.450897 127.511261,246.772812 126.901199,245.829819 
	C126.695740,244.377014 126.139465,243.381149 125.063644,242.320129 
	C124.760513,242.150192 124.838036,242.124878 124.838356,242.165649 
	C124.630569,241.615570 124.511940,240.997406 124.032104,240.234024 
	C123.773537,240.057480 123.882004,240.073318 123.867882,240.126282 
	C120.508301,231.627701 122.214340,222.661575 121.842499,213.883179 
	C121.683510,210.129730 122.098045,206.348251 121.537254,202.577362 
	C121.306244,201.023972 120.633110,199.286423 122.613159,197.784943 
	C123.706337,197.336533 124.423775,197.416641 125.343689,198.089020 
	C125.965515,198.869949 126.219528,199.469894 126.606430,200.339722 
	C126.862862,200.770432 126.972343,200.938248 127.249756,201.357849 
	C127.528603,201.780930 127.639534,201.952255 127.907196,202.393417 
	C128.151657,202.856033 128.239395,203.048813 128.410156,203.550751 
	C128.948395,206.010498 131.409775,207.332245 130.908585,210.190704 
	C129.425430,214.024338 127.172058,217.297592 128.205887,221.828568 
	C130.581848,218.249557 132.735611,214.615097 137.063873,212.752045 
	C142.066681,211.517685 146.689087,214.618958 151.650696,212.552795 
	C152.357941,212.135086 152.781967,211.950546 153.532654,211.703064 
	C154.433350,211.423538 155.036575,211.281906 155.846191,210.834457 
	C157.073318,210.277191 157.854019,209.650497 158.572464,208.480133 
	C158.854950,208.022644 158.981262,207.845184 159.341187,207.433380 
	C160.090851,206.768829 160.716980,206.521896 161.581421,206.027008 
	C162.292130,205.726364 162.713913,205.611450 163.462463,205.484314 
	C165.480591,204.967484 166.734741,203.984299 167.476318,202.008484 
	C167.588135,201.482468 167.632202,201.269608 167.786530,200.746094 
	C168.081039,200.032288 168.296768,199.646729 168.707352,198.986389 
	C169.002975,198.513947 169.134933,198.333771 169.498077,197.914307 
	C170.951019,196.577591 171.474579,195.181641 171.477997,193.222321 
	C171.502335,192.647476 171.534439,192.416977 171.665924,191.848724 
	C172.956436,189.709579 173.560181,187.708862 173.923874,185.243958 
	C174.209381,184.712860 174.350006,184.515350 174.762329,184.078003 
	C183.902313,177.046326 194.244110,179.849854 196.501053,193.095795 
	C196.886597,195.358459 197.340195,197.702682 199.658936,199.450012 
	C205.434525,206.847031 212.509583,211.139099 221.653473,212.041855 
	C231.800888,213.043671 240.112106,209.853760 246.776031,201.620850 
	C247.446091,200.781357 247.859299,200.194565 248.592041,199.397522 
	C249.029251,198.976089 249.218643,198.821442 249.713394,198.461288 
	C251.799057,195.063675 252.677338,191.610275 252.989822,187.993362 
	C253.128586,186.387024 252.826660,184.489624 255.716187,184.486725 
	C256.345978,184.548477 256.596863,184.583237 257.200775,184.477692 
	C273.937775,187.739227 270.550049,187.092270 271.078918,200.377563 
	C271.145081,202.039642 270.909637,203.722061 271.072449,205.369522 
	C271.222595,206.888245 270.030518,209.226379 272.122742,209.718643 
	C273.894745,210.135574 274.616455,207.829208 275.512085,206.502243 
	C278.491913,202.087402 281.322876,197.571793 284.319061,193.168396 
	C286.417145,190.084930 289.107147,189.050903 292.944885,190.272690 
	C299.647339,192.406433 304.965912,199.164474 305.235901,206.159195 
	C305.678345,217.623535 302.243317,227.438431 293.641388,235.289185 
	C288.338959,240.128586 282.049408,242.361603 275.003143,242.621964 
	C273.550751,242.675629 271.450165,242.671936 270.715637,241.797821 
	C266.332550,236.581680 265.681061,241.148590 263.737366,243.966156 
	C257.226715,253.404053 248.962723,261.065369 238.795639,267.059784 
	C235.938034,267.960083 233.510208,269.002106 231.267731,271.026581 
	C230.658386,271.666107 230.190552,271.971985 229.437851,272.299866 
	C228.490295,272.151123 227.891739,272.269135 227.239044,273.013489 
	C226.637466,273.607483 226.163620,273.906586 225.404556,274.227661 
	C224.468338,274.121307 223.883286,274.254272 223.232269,274.969727 
	C222.619843,275.561188 222.149719,275.872772 221.392166,276.204376 
	C215.628357,276.944855 210.882477,279.869476 205.577942,281.269104 
	C192.779434,284.645966 181.030029,282.331940 169.654831,276.317505 
	C168.442368,275.676453 167.056625,275.133026 167.744095,273.420868 
	C168.345398,271.923309 169.750046,271.805603 171.126617,272.126434 
	C174.354446,272.878693 176.960266,275.414459 180.843475,275.366577 
	C182.483261,275.148895 183.743637,274.865265 185.295227,275.627411 
	C188.917465,278.826080 192.766708,278.176178 196.662567,277.529510 
	C202.034271,276.637817 207.329620,275.624420 211.501526,271.188629 
	C216.323975,265.125305 222.413223,260.630798 226.107941,253.974609 
	C229.715622,247.475250 232.299377,240.813248 231.989258,233.230713 
	C231.757599,227.566681 231.039352,226.837631 225.506805,227.473175 
	C224.185089,227.625000 222.867722,227.752441 221.191315,227.698563 
	C219.755600,227.470795 218.677399,227.338989 217.425369,228.310471 
	C216.222092,228.961151 215.265244,229.225082 213.862289,229.301910 
	C202.401871,231.397018 191.285568,232.767639 179.972855,232.568756 
	C174.308319,232.469162 168.757294,231.681229 163.183914,230.949173 
	C160.324249,230.573578 157.549530,230.099243 155.136627,232.891846 
	C154.862457,233.455231 154.768066,233.685089 154.504837,234.240891 
	C151.000519,238.606491 153.352188,242.174896 155.492905,246.041183 
	C155.841599,246.498993 155.962479,246.695282 156.214676,247.209503 
	C156.581070,248.599075 156.609222,249.735565 157.533478,250.913956 
	C157.858994,251.357605 157.977661,251.543304 158.248901,252.021072 
	C158.579620,252.710007 158.744431,253.112274 159.013702,253.819473 
	C159.200439,254.320496 159.266617,254.523163 159.393463,255.036438 
	C159.539856,256.175659 159.743912,256.961456 160.486938,257.863586 
	C160.814331,258.273743 160.933746,258.447845 161.196472,258.904297 
	C161.607239,260.235718 162.125610,261.094757 163.430359,261.726715 
	C164.063095,262.140961 164.379028,262.437378 164.864746,263.026733 
	C165.568390,264.239655 165.895828,265.309113 167.072540,266.227539 
	C167.554672,266.902344 167.741302,267.342285 167.920746,268.178345 
	C166.240097,274.147247 165.445953,274.390961 160.358643,272.210815 
	C155.440308,270.103119 151.414093,266.482727 146.119827,264.335510 
	C145.749878,264.234131 145.881439,264.213837 145.828979,264.254822 
	C143.635361,261.131866 140.345734,259.366577 136.948730,257.228210 
	C135.113586,255.713959 133.614471,254.294327 132.004456,252.582092 
	C131.353485,250.765839 130.584961,249.396744 128.951630,248.265289 
z"/>
<path fill="#EFA139" opacity="1.000000" stroke="none" 
	d="
M113.335182,64.987106 
	C114.587402,57.177670 119.617889,51.336010 124.337219,45.440067 
	C147.142929,16.948492 177.777237,7.124525 213.054047,8.891374 
	C233.383240,9.909567 252.544540,14.930292 269.544891,26.647581 
	C291.989075,42.116947 303.335968,64.405861 309.495758,91.664368 
	C305.289886,87.719505 301.473083,85.210365 299.194580,81.702148 
	C296.903351,78.174339 298.420776,72.914742 294.916168,68.718575 
	C292.926636,72.736053 295.965393,75.899261 295.269379,79.458961 
	C290.557526,76.267540 286.053070,73.186295 281.514099,70.156738 
	C279.615326,68.889412 280.015625,66.956276 279.969910,65.181900 
	C279.851379,60.580734 279.736816,55.994076 277.220734,51.210537 
	C275.500732,54.417942 276.594391,57.243790 276.461517,59.946381 
	C276.367432,61.860714 277.770935,64.425316 275.955170,65.516167 
	C274.216278,66.560822 272.397522,64.335869 270.636902,63.537933 
	C267.756683,62.232597 265.036652,60.570953 262.146423,59.291485 
	C260.238617,58.446918 259.417175,57.534351 259.576416,55.203701 
	C259.886658,50.662964 258.448395,46.325630 256.925476,42.084526 
	C256.506073,40.916550 256.190308,38.908298 254.602707,39.419094 
	C252.694351,40.033089 253.804947,41.950890 254.081909,43.278343 
	C254.726410,46.367302 255.393250,49.463341 256.292694,52.484562 
	C257.573761,56.787540 255.699173,56.588234 252.632599,55.365711 
	C235.920746,48.703346 218.537933,45.085960 200.601135,43.981846 
	C180.055984,42.717167 160.018234,45.223003 140.524475,51.903862 
	C139.286118,52.328270 138.018616,52.667702 136.191696,53.219822 
	C136.746155,47.773746 141.502457,44.311596 140.791290,38.700169 
	C138.006027,42.877907 134.774857,46.835884 132.573990,51.301632 
	C130.752823,54.996937 128.324295,57.402718 124.720467,59.116085 
	C120.965073,60.901508 117.383797,63.053165 113.335182,64.987106 
z"/>
<path fill="#ED9F39" opacity="1.000000" stroke="none" 
	d="
M164.192566,94.883842 
	C149.129578,96.192879 134.760574,99.646751 120.101799,103.573303 
	C119.493935,103.561111 119.263039,103.526291 118.688141,103.560440 
	C115.064995,101.264885 112.428589,98.119835 108.928513,96.003616 
	C107.322769,95.032753 106.594543,95.348923 106.070824,97.388077 
	C100.296730,100.239746 94.145508,100.993713 88.530449,103.418037 
	C85.635887,104.667770 82.711021,105.762749 80.258209,108.408920 
	C79.146759,109.558365 77.834602,109.719536 76.663292,110.783173 
	C67.694290,113.601974 62.641903,120.689369 56.743065,127.166595 
	C56.650322,127.992081 56.574707,128.464859 56.329796,129.278519 
	C54.277027,132.160294 55.420918,136.256989 51.571209,137.966354 
	C47.731468,124.643486 53.269215,114.536377 62.758080,106.024284 
	C74.858391,95.169571 89.505447,89.272957 105.039948,85.569359 
	C128.842941,79.894470 153.107193,78.667206 177.480225,78.990692 
	C221.881210,79.579987 263.483215,90.628357 301.675171,113.356667 
	C319.644257,124.050209 336.221405,136.697830 347.432739,154.959274 
	C353.471069,164.794739 357.715424,175.170563 354.576965,187.494949 
	C353.725800,187.775513 352.968658,187.644318 352.632172,187.088333 
	C350.405029,183.408722 347.106659,181.702988 342.886139,181.513443 
	C342.244781,181.484619 341.713684,180.952133 341.022675,180.201050 
	C339.853882,178.087692 345.122620,177.256470 341.353363,174.781799 
	C339.005798,171.003479 337.155212,167.260574 332.949463,165.071198 
	C330.880676,163.367889 329.498993,161.516449 328.021545,159.744034 
	C325.066620,156.199127 322.244263,152.476517 316.841217,152.680817 
	C315.549042,152.729660 314.287811,152.015152 313.747131,150.247894 
	C316.144165,146.778671 320.003113,147.613678 323.079651,146.448914 
	C319.899475,147.114960 316.717102,147.247589 313.201752,146.215179 
	C306.658783,142.267776 300.855499,137.870377 294.910736,133.677353 
	C292.841400,132.217773 291.025421,130.567642 290.271240,127.657852 
	C290.112152,125.870422 291.418457,125.134521 292.035553,123.712112 
	C289.772552,124.761108 286.489899,124.536980 288.145935,128.813965 
	C288.205109,130.623154 287.861664,131.868820 285.962036,132.396912 
	C280.831909,129.226288 276.109741,126.132034 271.389984,123.034050 
	C245.094360,105.774055 215.791443,98.053146 184.786819,95.729385 
	C183.128693,95.605103 181.470352,95.483360 179.424286,95.236565 
	C177.997803,94.044525 176.706665,94.625732 175.253357,94.745682 
	C173.280853,94.962692 171.567520,95.007278 169.429871,94.979156 
	C167.516586,94.157974 165.962433,94.535957 164.192566,94.883842 
z"/>
<path fill="#DE3424" opacity="1.000000" stroke="none" 
	d="
M268.637573,67.349838 
	C282.686218,75.167198 295.902557,83.478424 306.603241,95.243996 
	C309.697449,98.646164 310.992828,102.505180 311.091339,107.058823 
	C311.167084,110.558670 310.235962,110.697807 307.460236,109.115456 
	C293.402161,101.101334 278.796967,94.237091 263.692688,88.402771 
	C242.057175,80.045631 219.597382,75.786835 196.544952,73.865822 
	C168.495087,71.528351 140.647598,73.411720 112.824532,76.787056 
	C111.728104,76.920067 110.565453,77.452148 109.453659,76.550545 
	C109.312241,74.487885 111.143242,73.846802 112.325508,72.858749 
	C128.051575,59.716106 146.773117,53.393791 166.546463,50.214302 
	C202.274506,44.469349 236.148926,50.965057 268.637573,67.349838 
z"/>
<path fill="#DE8B5B" opacity="1.000000" stroke="none" 
	d="
M171.778564,309.209534 
	C173.400375,305.927551 173.828552,302.624664 173.987320,299.310089 
	C174.144272,296.033264 174.021606,292.743011 174.021606,288.635590 
	C186.285187,296.508789 198.349716,295.247192 210.174484,289.743469 
	C218.158096,286.027557 225.760025,281.489044 233.514359,277.284698 
	C235.708405,276.095093 237.812683,274.739868 240.007645,273.552094 
	C241.131439,272.943970 242.248199,271.621735 243.598328,272.344818 
	C245.012955,273.102417 244.411972,274.716553 244.303894,275.970581 
	C243.871307,280.990112 244.749176,285.938934 245.058090,290.914764 
	C245.277451,294.447968 246.814102,297.377289 250.218384,298.857941 
	C252.348450,299.784393 252.351349,300.922211 251.317474,302.731842 
	C247.568344,309.293976 243.551147,315.561768 236.506088,319.162476 
	C217.804657,328.720703 198.583160,332.511963 178.372253,324.219635 
	C171.718567,321.489716 166.344345,317.093689 163.191757,310.448059 
	C162.450760,308.885986 161.259369,306.904785 163.024689,305.372070 
	C164.838150,303.797607 167.387344,303.136566 169.597412,303.643829 
	C172.161041,304.232269 170.545029,306.623566 170.580658,308.659058 
	C170.818329,309.351471 171.169205,309.460754 171.778564,309.209534 
z"/>
<path fill="#DD8B5B" opacity="1.000000" stroke="none" 
	d="
M130.760818,152.124557 
	C131.350677,151.188507 132.061310,150.486343 132.868927,149.923309 
	C138.772446,145.807617 139.098251,145.931015 140.534592,152.780334 
	C140.984421,152.687164 141.743881,152.718369 141.838348,152.482834 
	C144.477661,145.902557 149.088104,141.690002 156.000580,139.737000 
	C157.880524,139.205856 160.522202,137.467133 159.408051,135.076843 
	C158.522949,133.177963 155.881775,134.215576 153.973770,134.682266 
	C153.209488,134.869186 152.429993,134.993942 150.621033,135.352341 
	C156.401642,121.281258 163.842819,109.110382 172.080978,95.572296 
	C173.695160,121.981194 182.437408,143.582336 201.384918,160.585571 
	C200.838898,145.533600 199.182358,130.631104 200.851669,115.307266 
	C207.344437,130.258057 213.659668,145.240158 226.883728,156.074493 
	C221.478012,156.426376 216.753494,156.957062 212.201508,159.666977 
	C210.561264,162.931290 207.007217,163.751968 205.295090,166.486862 
	C204.250610,168.155258 202.665283,169.491501 202.203949,171.911835 
	C201.865982,172.692184 201.624588,173.117462 201.148209,173.840637 
	C199.502762,175.865265 199.356110,178.673691 196.214508,179.328140 
	C189.462616,177.983398 183.151596,177.397980 176.677048,179.160629 
	C173.189896,180.109985 170.947815,177.702820 169.886047,174.634232 
	C168.499390,170.626678 165.726654,167.910202 162.121597,165.343994 
	C160.369781,163.499954 159.020828,161.742508 156.320587,161.187836 
	C150.283752,158.809662 144.626190,158.496918 138.997589,161.288208 
	C138.127411,161.719742 137.191177,162.071884 135.816711,161.797546 
	C133.769989,160.576035 134.223038,159.149353 135.170944,157.948181 
	C137.957352,154.417297 136.697037,153.121109 132.699799,153.126190 
	C132.044693,153.127014 131.452698,152.822159 130.760818,152.124557 
z"/>
<path fill="#D6842E" opacity="1.000000" stroke="none" 
	d="
M55.651543,127.775848 
	C54.970947,125.900887 55.761311,124.684631 56.886806,123.629944 
	C61.077488,119.702934 64.735764,115.232933 69.475159,111.850304 
	C71.360222,110.504883 73.195595,109.891518 75.803085,109.956512 
	C80.475182,109.301605 83.644501,112.357941 86.981987,112.972816 
	C84.696678,111.405190 80.840279,111.413132 78.935928,107.847672 
	C80.194763,105.240417 82.010376,103.641823 84.438667,102.825630 
	C91.392517,100.488319 98.038902,97.040047 106.066757,96.878235 
	C111.610985,95.600845 113.534332,100.489510 117.274292,102.546013 
	C117.869781,102.928986 118.246552,103.043922 119.174072,103.377396 
	C108.848732,109.442032 98.235405,115.628479 90.045647,125.191963 
	C87.314453,128.381287 84.840141,131.688980 83.347374,135.638947 
	C82.909073,136.798737 81.800171,137.999222 83.222656,139.249039 
	C84.404648,140.287552 85.649254,139.979568 86.963936,139.511703 
	C89.442581,138.629608 91.949951,137.828232 95.388885,136.677643 
	C91.080994,149.515686 84.647942,161.794632 94.150032,174.420380 
	C97.605820,171.677460 97.369606,166.981812 101.022362,163.444763 
	C102.200821,168.810318 103.624847,173.389694 104.106613,178.066132 
	C104.521461,182.092987 101.868607,182.108566 98.825165,180.819626 
	C86.173836,175.461655 74.251564,168.940552 63.859089,159.256699 
	C64.330070,155.656815 67.147446,156.232330 69.475685,156.076462 
	C71.606781,155.933777 73.743439,156.191193 75.818207,156.713913 
	C71.173279,155.421448 66.418007,156.209244 61.369949,156.080566 
	C55.634300,151.482635 53.245441,145.155304 51.163445,138.300995 
	C52.238033,135.120972 53.278381,132.313141 54.537403,129.235825 
	C59.795544,129.736938 64.441620,131.847855 68.619415,133.041046 
	C64.892830,131.356049 59.983315,130.758316 55.651543,127.775848 
z"/>
<path fill="#D6842F" opacity="1.000000" stroke="none" 
	d="
M340.944794,178.143875 
	C341.828613,179.783295 343.119354,180.139023 344.463165,179.951874 
	C350.041992,179.174942 352.616455,182.345139 354.227173,187.474976 
	C352.584351,195.400635 347.873627,200.864853 341.596527,204.927338 
	C333.360260,210.257812 324.010590,212.572983 314.430237,214.116516 
	C311.730255,214.551529 310.696075,213.655457 311.096283,210.958923 
	C312.517639,201.382156 311.646301,191.719467 312.005096,181.861008 
	C314.335938,181.813446 315.470764,183.757004 317.180908,184.474014 
	C318.689941,185.106720 320.275208,186.108856 321.864899,184.885193 
	C323.524841,183.607437 322.800079,181.866058 322.356964,180.290436 
	C319.179626,168.992081 312.932312,159.474838 305.057159,150.531479 
	C304.445953,149.254715 304.097412,148.203598 302.979889,147.331085 
	C302.662292,147.250214 302.787872,147.166718 302.821075,147.234406 
	C301.881409,145.977051 300.461609,144.595139 301.914764,142.931290 
	C303.326477,141.314896 305.234528,141.756744 306.980225,142.502884 
	C308.207458,143.027435 309.278717,143.819260 310.386353,145.158691 
	C311.326752,147.050461 312.721466,148.072403 313.886108,149.709076 
	C314.132874,150.142639 314.278320,150.334076 314.402466,150.321136 
	C323.253601,149.398178 327.513214,155.683472 332.053558,161.537186 
	C332.560913,162.191315 333.131042,162.796753 333.836670,163.715424 
	C337.470612,169.656845 337.379639,170.612473 332.747131,173.884521 
	C331.856049,174.214813 331.272186,174.312515 330.529510,174.612473 
	C333.609192,176.724213 337.884155,174.972702 340.944794,178.143875 
z"/>
<path fill="#EAD0C7" opacity="1.000000" stroke="none" 
	d="
M219.285736,330.587830 
	C236.424118,326.334229 249.618607,317.748413 256.410217,301.144989 
	C257.295105,298.981659 258.605377,297.201111 261.283386,298.057739 
	C264.078674,298.951843 265.169006,301.223877 264.721069,303.964630 
	C264.151306,307.451202 262.554260,310.594116 260.662140,313.564697 
	C250.508072,329.506348 235.396194,337.779755 217.326721,341.257294 
	C202.293442,344.150513 187.378143,343.596283 173.180328,337.486450 
	C162.235321,332.776428 153.670013,325.405365 150.494370,313.195862 
	C149.807434,310.554779 149.719193,307.919342 150.176483,305.277039 
	C150.808517,301.625000 153.497910,301.149567 156.580154,301.311584 
	C160.507370,301.518097 158.625229,304.079437 158.573822,305.984528 
	C158.445999,310.721008 160.368729,314.735809 163.273026,318.310364 
	C170.071503,326.677765 179.320251,330.605927 189.634018,332.126709 
	C199.427780,333.570801 209.235260,333.276917 219.285736,330.587830 
z"/>
<path fill="#F0DBD8" opacity="1.000000" stroke="none" 
	d="
M213.261185,161.523102 
	C228.140549,157.042007 244.252151,163.210251 248.508057,180.772705 
	C248.679184,181.296387 248.628525,181.479370 248.773056,181.869690 
	C248.956909,185.400955 248.945541,188.724884 248.959274,192.501968 
	C248.741592,193.184738 248.633240,193.435654 248.658905,193.707932 
	C248.685562,193.990768 248.731720,194.132217 248.637970,194.426834 
	C248.274628,195.204483 248.071014,195.687531 247.878784,196.439499 
	C248.558243,199.086868 247.355545,200.794815 246.017822,202.601974 
	C237.277786,214.408981 216.918228,215.215897 207.052795,205.727371 
	C206.555405,204.288818 206.584305,203.223221 207.086044,201.819641 
	C208.948776,199.786896 210.536407,200.784622 212.101410,201.670059 
	C213.502701,202.462906 214.639496,203.712997 216.614471,204.178040 
	C218.380539,204.807236 219.824509,205.089615 221.611084,204.285553 
	C229.147949,202.868286 232.783295,198.215652 233.733322,191.255630 
	C234.733429,183.928619 233.138931,177.268982 227.524673,172.142731 
	C222.138260,167.224518 214.889664,168.302841 210.727707,174.370377 
	C209.514679,176.138779 208.674835,178.212967 206.253937,179.377518 
	C205.626022,179.446671 205.366776,179.415192 204.772003,179.168396 
	C203.875809,178.329590 203.636932,177.554611 203.273880,176.382843 
	C202.735214,174.319992 203.565598,172.740829 203.518616,170.688232 
	C204.907333,165.510788 208.066406,162.634583 213.261185,161.523102 
z"/>
<path fill="#DE8A5B" opacity="1.000000" stroke="none" 
	d="
M270.220062,182.749466 
	C265.248505,183.265015 260.747040,180.719589 255.486023,181.918732 
	C254.831299,182.157959 254.621216,182.282806 254.063736,182.292480 
	C251.261887,177.787598 250.799377,172.467911 247.023712,168.388321 
	C246.696671,168.234314 246.807205,168.107635 246.777557,168.186295 
	C246.569916,167.171478 246.047318,166.248596 245.063293,165.249435 
	C241.120117,162.159241 237.384018,159.356003 232.370926,158.061478 
	C231.518326,157.536606 231.522614,156.815887 230.774887,156.277588 
	C230.320724,155.043457 230.176437,153.878845 230.062958,152.361496 
	C230.786621,150.495895 230.592667,148.956711 229.911682,147.298126 
	C229.444122,146.652344 229.295044,146.120987 229.141388,145.310944 
	C229.359283,144.748230 229.517029,144.432693 229.413757,143.887924 
	C229.538803,143.632004 229.849594,143.568726 230.591766,143.706116 
	C231.220139,144.227814 231.475891,144.490219 232.077896,144.702850 
	C236.405869,147.139297 241.197418,147.654800 245.292221,150.200867 
	C252.381134,154.608612 255.538086,161.950256 259.892944,168.389236 
	C261.546295,170.833786 263.161957,172.414993 266.615417,171.848236 
	C267.223785,175.091370 266.339569,178.629074 270.276306,180.789032 
	C270.615112,181.553741 270.602448,182.014984 270.220062,182.749466 
z"/>
<path fill="#DA8A5B" opacity="1.000000" stroke="none" 
	d="
M104.201706,191.504532 
	C105.982437,188.908279 107.504028,185.362473 110.292122,185.925003 
	C112.897400,186.450638 113.435463,190.242065 114.457199,192.865814 
	C118.732788,203.845276 115.454430,215.026718 116.017731,226.433304 
	C104.837135,220.502975 99.609711,204.781357 104.201706,191.504532 
z"/>
<path fill="#DE8A5B" opacity="1.000000" stroke="none" 
	d="
M130.321045,151.886063 
	C131.255920,151.821350 131.922607,151.871429 132.576401,151.801254 
	C134.562424,151.588058 136.324158,148.428757 138.473114,152.643539 
	C140.446091,156.513184 138.842499,157.587418 136.202057,159.126389 
	C135.721146,159.406693 135.541687,160.204239 135.206970,161.129639 
	C135.229843,161.872513 135.182526,162.238678 134.944427,162.852478 
	C134.633957,163.433517 134.421860,163.745010 134.015106,164.267090 
	C133.338120,165.062271 132.755981,165.547852 131.966400,166.224014 
	C131.089218,166.818710 130.707672,167.431137 130.397003,168.447235 
	C129.679001,170.034943 128.562317,171.032257 127.850937,172.647583 
	C127.286011,173.396393 126.910614,173.895294 126.538193,174.769043 
	C126.177689,175.679123 125.814125,176.219284 125.197662,176.986771 
	C123.155106,178.701752 123.611382,180.796509 123.447945,183.078751 
	C123.393593,183.670944 123.359184,183.910233 123.214890,184.501968 
	C122.291153,186.333908 122.679443,188.613022 119.749901,189.295441 
	C118.986275,182.133118 116.158165,174.543808 118.726349,168.312897 
	C120.652466,163.639771 120.359428,156.199509 127.696045,154.022720 
	C128.605804,153.104782 129.326385,152.525330 130.321045,151.886063 
z"/>
<path fill="#332C23" opacity="1.000000" stroke="none" 
	d="
M207.834000,204.645813 
	C217.587585,213.764160 241.356125,213.192001 247.648621,196.890930 
	C248.266739,196.769333 248.643341,196.830246 249.587357,196.965179 
	C250.724060,197.779785 250.704559,198.580353 250.049942,199.644272 
	C249.703384,199.878204 249.804977,199.906189 249.810577,199.853806 
	C249.615097,200.397644 249.514496,201.026123 248.967499,201.758102 
	C236.027756,219.179855 207.950928,216.165909 199.421722,201.148010 
	C194.897110,196.058807 194.954636,190.083771 195.097351,183.759201 
	C195.848099,182.642715 196.590393,182.563690 197.748184,183.016083 
	C200.190811,186.459045 200.220764,190.429276 201.739120,193.912079 
	C202.605804,195.900162 203.363297,197.883148 205.108017,199.716125 
	C205.825394,200.409912 206.180695,200.956406 206.579437,201.849426 
	C207.020660,202.904053 207.211884,203.716293 207.834000,204.645813 
z"/>
<path fill="#DD8B5B" opacity="1.000000" stroke="none" 
	d="
M145.939148,264.515320 
	C148.268600,263.732391 150.107010,265.121033 152.060623,266.372894 
	C154.538803,267.960907 157.248642,269.201691 159.656616,270.881714 
	C163.408371,273.499268 165.584091,272.363556 166.996124,267.992523 
	C169.212204,266.949524 170.651230,268.528961 172.641830,269.294159 
	C174.742294,270.659271 176.315460,272.264832 178.851929,272.861572 
	C180.179916,273.842712 181.277298,274.610504 182.117828,276.052155 
	C179.939148,278.804138 177.961670,276.562805 175.960281,275.930145 
	C173.572861,275.175476 171.572800,273.167114 168.724991,273.763306 
	C172.410812,276.828949 176.663498,278.681671 181.167236,280.033203 
	C192.669495,283.484924 203.699432,281.376587 214.563095,277.212769 
	C216.514801,276.464722 218.318008,275.021088 220.868668,275.989319 
	C205.651413,284.434296 189.998383,287.042572 173.391464,279.183777 
	C164.075211,274.775085 154.471573,271.012238 145.939148,264.515320 
z"/>
<path fill="#DD8B5B" opacity="1.000000" stroke="none" 
	d="
M127.534805,153.797546 
	C123.159454,156.854630 122.037331,162.261993 120.828003,167.049942 
	C120.156914,169.706940 118.481468,172.553513 119.109619,175.423950 
	C119.984108,179.420105 119.909454,183.467041 120.192245,188.762283 
	C120.912582,186.528763 121.241608,185.508560 121.787796,184.244171 
	C122.590454,184.081314 123.104721,184.317474 123.793007,185.061768 
	C124.893036,189.314590 124.384521,193.267227 124.310806,197.579437 
	C122.653458,198.723541 121.818787,199.978302 122.091545,201.589828 
	C124.207779,214.093399 121.179199,226.842102 123.888817,239.744019 
	C121.822365,237.386520 120.882675,234.131622 121.044968,230.816071 
	C121.982079,211.672501 119.191719,192.800415 117.176247,173.868469 
	C117.071014,172.880051 117.107628,171.876526 117.106720,170.439926 
	C118.207924,167.983627 116.040573,164.045395 120.641449,163.711472 
	C120.194916,158.344650 122.064919,154.999146 127.534805,153.797546 
z"/>
<path fill="#DB8A31" opacity="1.000000" stroke="none" 
	d="
M310.417419,147.171356 
	C308.678680,145.627090 307.186249,144.368988 305.293427,143.687561 
	C302.040649,142.516556 301.911377,144.150177 302.771790,146.947998 
	C297.217957,142.494308 291.581665,137.686493 285.749146,132.600479 
	C286.740234,131.435349 287.013031,130.175797 286.999817,128.395706 
	C287.531677,126.673302 288.559296,126.158257 290.273499,126.278015 
	C295.926147,133.799255 304.412598,137.266876 311.152466,142.900436 
	C311.920135,143.542084 312.778503,143.988571 313.071838,145.432053 
	C312.686371,146.852142 311.852875,147.287064 310.417419,147.171356 
z"/>
<path fill="#D1885B" opacity="1.000000" stroke="none" 
	d="
M127.468758,147.619537 
	C126.611671,148.156128 125.899246,148.823090 125.481865,148.672470 
	C124.064621,148.161026 124.823227,146.988602 125.174446,146.221451 
	C129.121765,137.599411 133.316727,129.124054 140.961090,121.686264 
	C140.511826,127.941490 140.186798,133.397125 139.690216,138.837097 
	C139.532990,140.559509 137.871429,141.106903 136.516159,141.717926 
	C133.305481,143.165451 130.255051,144.844055 127.468758,147.619537 
z"/>
<path fill="#D38C5F" opacity="1.000000" stroke="none" 
	d="
M234.679810,139.053680 
	C227.056351,136.529770 226.638000,135.469421 228.220871,122.646179 
	C232.002274,127.469772 234.755753,132.395355 237.269516,137.437378 
	C238.962097,140.832291 236.513611,139.517654 234.679810,139.053680 
z"/>
<path fill="#3A2C17" opacity="1.000000" stroke="none" 
	d="
M61.151344,156.368195 
	C62.850407,153.330368 65.644142,154.071854 68.212196,154.190384 
	C71.002747,154.319229 73.822571,154.417068 76.557419,154.920609 
	C78.167374,155.217041 81.247269,154.255585 81.119965,156.443848 
	C80.960281,159.188843 77.796463,158.382553 75.806938,158.420944 
	C71.904350,158.496201 68.016953,157.029312 63.835838,158.662369 
	C62.278114,158.750977 61.908504,157.565460 61.151344,156.368195 
z"/>
<path fill="#DC8A5B" opacity="1.000000" stroke="none" 
	d="
M250.055634,199.735168 
	C249.842789,199.171814 249.982178,198.465424 250.138184,197.399139 
	C253.654572,187.127762 252.456238,177.771515 246.765274,168.586197 
	C250.609116,168.944305 250.534210,172.668259 251.854721,175.257263 
	C252.806885,177.124161 253.226395,179.262711 253.947235,181.650360 
	C254.301407,182.173157 254.537704,182.385818 254.901093,182.816437 
	C255.356873,183.089081 255.609741,183.240189 255.999466,183.582306 
	C256.205444,183.917770 256.252930,184.098495 256.266052,184.557419 
	C252.790176,186.149124 254.034515,189.562912 253.118835,191.982697 
	C252.168076,194.495239 252.710327,197.541153 250.055634,199.735168 
z"/>
<path fill="#46392E" opacity="1.000000" stroke="none" 
	d="
M213.337860,161.299164 
	C210.757950,163.914581 207.160309,165.507126 205.141022,169.312607 
	C204.344574,171.036942 203.878067,172.640717 201.531723,172.828629 
	C200.917053,172.615570 200.700897,172.456726 200.416199,171.901382 
	C202.495148,166.268921 206.310349,162.604980 211.565826,159.929077 
	C212.280884,160.274857 212.649261,160.663544 213.337860,161.299164 
z"/>
<path fill="#DE8A5A" opacity="1.000000" stroke="none" 
	d="
M270.240967,180.653961 
	C266.323822,181.410385 265.518646,177.607529 263.092804,176.118057 
	C261.947266,175.414719 262.722931,174.372681 263.901337,174.102966 
	C265.008514,173.849548 266.248779,173.943848 266.899017,172.291260 
	C266.999481,171.955322 267.268860,171.744781 267.439636,171.752991 
	C267.864868,171.672577 268.119385,171.583954 268.759308,171.617035 
	C270.265686,172.782837 269.831696,174.272141 270.339508,175.910095 
	C270.519714,177.634186 270.525085,178.971664 270.240967,180.653961 
z"/>
<path fill="#BE845D" opacity="1.000000" stroke="none" 
	d="
M270.040710,181.336639 
	C270.039093,179.615829 270.042084,178.232773 270.037720,176.434845 
	C269.082642,175.012726 269.707886,173.729340 269.203186,172.328094 
	C268.747559,172.005783 268.519440,171.959763 267.950867,171.837463 
	C267.897125,170.290939 268.415894,168.993607 270.645721,168.227478 
	C270.831665,173.353577 272.004059,178.176147 270.354095,183.069138 
	C270.009613,182.574188 270.027466,182.124313 270.040710,181.336639 
z"/>
<path fill="#DD8B5B" opacity="1.000000" stroke="none" 
	d="
M136.785690,257.435059 
	C140.940552,257.466339 143.912094,259.736816 145.786163,263.928589 
	C142.366791,262.741821 139.688599,260.204437 136.785690,257.435059 
z"/>
<path fill="#DD8B5B" opacity="1.000000" stroke="none" 
	d="
M231.476074,271.290588 
	C231.896637,267.790405 234.850159,267.561432 238.062241,267.115509 
	C236.258331,268.496216 234.042130,269.858612 231.476074,271.290588 
z"/>
<path fill="#B47750" opacity="1.000000" stroke="none" 
	d="
M120.274261,163.474731 
	C119.437073,165.248886 117.298149,166.712372 117.322037,169.695709 
	C117.138847,167.482971 115.196014,164.122177 120.274261,163.474731 
z"/>
<path fill="#DD8B5B" opacity="1.000000" stroke="none" 
	d="
M128.745087,248.447632 
	C130.875977,248.142929 131.926987,249.308014 131.905273,251.896515 
	C130.879211,251.115082 129.864868,249.940689 128.745087,248.447632 
z"/>
<path fill="#DC8A5B" opacity="1.000000" stroke="none" 
	d="
M244.845337,165.405121 
	C246.254868,165.236618 246.938675,166.050430 246.793976,167.893463 
	C245.823273,167.644989 244.991150,166.957703 244.845337,165.405121 
z"/>
<path fill="#CB9342" opacity="1.000000" stroke="none" 
	d="
M164.379089,95.210953 
	C165.292130,93.745697 166.835907,93.831795 168.732941,94.690002 
	C167.602737,95.036209 166.199921,95.165955 164.379089,95.210953 
z"/>
<path fill="#DD8B5B" opacity="1.000000" stroke="none" 
	d="
M124.823822,242.483734 
	C126.403381,242.264130 126.943291,243.274216 126.871490,245.166550 
	C126.199272,244.649017 125.543198,243.733154 124.823822,242.483734 
z"/>
<path fill="#B77D5A" opacity="1.000000" stroke="none" 
	d="
M229.563782,147.588089 
	C231.300323,148.305969 231.009033,149.843887 230.285248,151.720337 
	C229.907272,150.669983 229.720825,149.331223 229.563782,147.588089 
z"/>
<path fill="#DB8A31" opacity="1.000000" stroke="none" 
	d="
M302.773315,147.548065 
	C304.225830,147.177048 304.896790,148.006317 304.921570,149.860382 
	C304.241150,149.437943 303.562744,148.641937 302.773315,147.548065 
z"/>
<path fill="#CB9342" opacity="1.000000" stroke="none" 
	d="
M175.383591,95.050568 
	C176.116898,93.894890 177.316452,93.845528 178.809326,94.873840 
	C177.948624,95.136131 176.860809,95.159569 175.383591,95.050568 
z"/>
<path fill="#DD8B5B" opacity="1.000000" stroke="none" 
	d="
M227.403198,273.279419 
	C227.281769,272.389893 227.201248,271.179474 228.960266,272.103149 
	C228.667023,272.631378 228.181061,272.940887 227.403198,273.279419 
z"/>
<path fill="#DD8B5B" opacity="1.000000" stroke="none" 
	d="
M223.383514,275.225586 
	C223.266220,274.346436 223.218933,273.184174 224.926254,274.040833 
	C224.638565,274.566986 224.157806,274.884277 223.383514,275.225586 
z"/>
<path fill="#62462E" opacity="1.000000" stroke="none" 
	d="
M171.619949,308.999390 
	C171.754410,309.525330 171.652939,310.335114 171.266220,310.508453 
	C170.505096,310.849548 170.224319,310.220337 170.393097,309.279724 
	C170.770599,309.040070 171.012848,309.017792 171.619949,308.999390 
z"/>
<path fill="#DD8B5B" opacity="1.000000" stroke="none" 
	d="
M123.797165,240.371552 
	C124.123917,240.559692 124.474297,241.061920 124.831680,241.885284 
	C124.499382,241.699478 124.160088,241.192551 123.797165,240.371552 
z"/>
<path fill="#B77D5A" opacity="1.000000" stroke="none" 
	d="
M230.500549,156.544510 
	C230.907471,156.603180 231.349930,156.998306 231.902039,157.683594 
	C231.216553,158.018982 230.784027,157.574600 230.500549,156.544510 
z"/>
<path fill="#A26E4C" opacity="1.000000" stroke="none" 
	d="
M232.147217,144.564468 
	C231.986755,144.633896 231.617142,144.547104 231.135345,144.183563 
	C231.328125,144.073944 231.633087,144.241089 232.147217,144.564468 
z"/>
<path fill="#EFA139" opacity="1.000000" stroke="none" 
	d="
M112.992142,64.990494 
	C112.856026,65.188927 112.703224,65.367531 112.550423,65.546143 
	C112.550186,65.305222 112.549950,65.064293 112.746841,64.876450 
	C112.943977,64.929527 112.975464,64.970680 112.992142,64.990494 
z"/>
<path fill="#A26E4C" opacity="1.000000" stroke="none" 
	d="
M229.103302,143.901367 
	C229.454742,143.972061 229.505722,144.278076 229.258865,144.822815 
	C228.933365,144.749756 228.880630,144.441467 229.103302,143.901367 
z"/>
<path fill="#332C23" opacity="1.000000" stroke="none" 
	d="
M248.998810,181.904099 
	C248.706360,181.955002 248.571655,181.749603 248.647003,181.287140 
	C248.918274,181.276367 249.018112,181.482269 248.998810,181.904099 
z"/>
<path fill="#AE724D" opacity="1.000000" stroke="none" 
	d="
M255.095428,182.737946 
	C254.737488,182.910751 254.463257,182.736282 254.135315,182.235748 
	C254.182938,182.006302 254.354874,181.991989 254.784119,182.005386 
	C255.041397,182.033096 255.108536,182.501633 255.095428,182.737946 
z"/>
<path fill="#AE724D" opacity="1.000000" stroke="none" 
	d="
M256.571960,184.736847 
	C256.204559,184.653595 256.177399,184.471588 256.154114,184.013306 
	C256.495850,183.815689 256.833679,183.894333 257.362671,184.155182 
	C257.339935,184.437622 257.126068,184.537857 256.571960,184.736847 
z"/>
<path fill="#332C23" opacity="1.000000" stroke="none" 
	d="
M248.666565,194.297577 
	C248.531784,194.252426 248.585327,193.783401 248.811615,193.134766 
	C248.941208,193.261337 248.898056,193.567520 248.666565,194.297577 
z"/>
<path fill="#1D1D14" opacity="1.000000" stroke="none" 
	d="
M172.170944,271.250061 
	C170.457245,270.044952 169.089722,269.009369 167.433838,267.817261 
	C167.161392,267.392487 167.065994,267.172485 166.690277,266.924316 
	C165.186539,266.575409 164.907776,265.375397 164.228516,264.091003 
	C164.095581,263.480530 163.986237,263.233215 163.566727,262.952942 
	C161.793777,262.209778 161.025391,260.849976 160.327362,259.053711 
	C160.279526,258.719238 160.263153,258.853973 160.303894,258.799683 
	C158.692551,258.248962 158.699371,256.769867 158.265045,255.158234 
	C158.125854,254.846863 158.090302,254.938187 158.137527,254.951279 
	C157.477386,254.578537 157.514587,253.815155 157.204742,252.849762 
	C157.125656,252.511887 157.182709,252.219589 157.081879,252.110016 
	C155.845154,250.975113 155.588928,249.558701 155.202911,247.818451 
	C155.129028,247.469772 155.178421,247.191055 155.073929,247.095581 
	C152.113281,243.305878 151.341965,239.206863 152.860626,234.380005 
	C153.136581,234.043182 153.062637,234.051620 153.076233,234.086273 
	C154.851151,229.819061 158.509811,229.552246 162.249100,230.175751 
	C168.434875,231.207214 174.603790,231.989761 180.899475,232.048965 
	C191.856934,232.152008 202.663681,231.336472 213.632965,228.130005 
	C214.881622,227.988434 215.690338,227.808578 216.747223,227.435059 
	C217.519165,226.198959 218.431610,226.061508 219.808563,226.273849 
	C222.943130,225.970764 225.723114,225.563690 228.507553,225.189728 
	C232.306458,224.679520 233.830231,226.342102 234.059555,230.184677 
	C234.987717,245.737366 227.927444,257.563385 217.021194,267.675629 
	C215.810379,268.798279 214.446854,269.756195 212.956665,271.033875 
	C209.393555,275.629089 204.307205,276.898376 199.430435,277.778625 
	C194.965103,278.584656 190.231995,278.893921 185.335266,277.294556 
	C184.232132,276.766174 183.456284,276.538635 182.434372,276.345581 
	C181.121078,275.933289 180.053833,275.486542 178.741379,274.877686 
	C178.467987,274.470001 178.439819,274.224396 178.444809,273.609924 
	C179.922668,271.155884 182.005966,271.857880 183.933823,272.034729 
	C199.770996,273.487518 212.143036,267.662415 220.918747,254.378479 
	C223.723602,250.132690 223.474411,248.981644 218.814804,246.803101 
	C204.940140,240.316177 191.584595,242.331787 178.979858,250.143188 
	C173.051895,253.816864 171.490128,261.705719 174.631866,267.951508 
	C175.083633,268.849640 175.478882,269.759430 175.032562,271.092224 
	C174.035172,271.519226 173.276779,271.505737 172.170944,271.250061 
z"/>
<path fill="#42382E" opacity="1.000000" stroke="none" 
	d="
M124.347031,198.148865 
	C122.339981,194.131287 122.785568,189.987915 122.480240,185.497070 
	C122.511421,184.514481 122.511032,183.987350 122.501617,183.064270 
	C122.444923,180.542160 122.487411,178.434235 123.972427,176.320831 
	C124.543564,175.635651 124.777603,175.160233 125.034004,174.416351 
	C125.422211,173.629257 125.482834,172.994980 125.954758,172.234680 
	C127.072594,170.928482 127.945457,169.811310 128.932678,168.410568 
	C129.653168,167.179047 129.956619,166.027802 131.258545,165.240051 
	C132.034302,164.753937 132.480194,164.353470 132.997650,163.735382 
	C133.152740,163.060608 133.362640,162.671631 134.009918,162.212433 
	C134.573120,162.055573 134.790298,161.958755 135.081696,161.639954 
	C141.911102,156.916061 149.048279,156.749115 156.784286,159.694580 
	C157.216385,160.133499 157.324081,160.364807 157.330505,160.964569 
	C155.616623,163.195465 153.337372,163.235565 151.295929,162.949249 
	C142.594650,161.728928 136.986328,166.378525 132.154129,172.642746 
	C131.452957,173.551712 130.855453,174.539688 129.807175,175.616882 
	C128.894104,177.278931 127.945190,178.542709 127.579002,180.424377 
	C127.499695,180.954391 127.477448,181.167007 127.424118,181.698349 
	C127.264763,182.637436 127.041344,183.225174 126.707672,184.098236 
	C126.576805,184.801971 126.539131,185.209564 126.524834,185.927521 
	C126.555092,186.657547 126.556595,187.079239 126.528198,187.829803 
	C126.460243,189.535355 126.711067,190.853867 127.353821,192.424545 
	C127.510994,192.932053 127.580482,193.129837 127.761986,193.616760 
	C127.943283,194.098541 128.012573,194.291229 128.175995,194.776306 
	C128.317398,195.268372 128.364655,195.468018 128.483200,195.967194 
	C128.767288,196.863861 129.052032,197.427032 129.518661,198.273590 
	C136.305435,206.641235 144.669174,209.613617 154.890320,207.159683 
	C156.023590,206.887604 157.182068,206.790787 158.675995,207.251007 
	C159.417725,207.710373 159.698059,208.109665 160.102539,208.882080 
	C159.371292,209.961868 158.412933,210.743210 157.228485,211.739227 
	C156.616058,212.447174 156.134521,212.779327 155.194992,212.808182 
	C154.462250,212.828461 154.029724,212.885040 153.294983,213.070496 
	C147.013641,216.029099 141.539581,212.978378 135.557053,211.599365 
	C134.490479,211.228973 133.867340,210.818298 132.909912,210.265793 
	C130.964462,207.818985 128.590775,206.131882 127.252174,203.193451 
	C127.084641,202.886078 127.046921,202.948654 127.082291,202.957794 
	C126.819237,202.779877 126.549957,202.557953 126.203995,202.057007 
	C126.093750,201.818176 126.233421,201.893585 126.269821,201.823059 
	C125.561699,201.673447 125.304092,201.147934 125.197433,200.201630 
	C125.005142,199.373230 124.783409,198.854248 124.347031,198.148865 
z"/>
<path fill="#2E281F" opacity="1.000000" stroke="none" 
	d="
M198.072205,183.805786 
	C197.330414,183.728867 196.939789,183.465302 196.343674,183.086456 
	C195.107544,183.716080 193.804901,184.014816 192.855408,183.328522 
	C186.696213,178.876556 181.012741,181.088623 175.001801,184.513123 
	C174.644470,184.657852 174.625793,184.769302 174.679245,184.787628 
	C174.525574,187.154968 173.931366,189.421600 172.962326,191.915680 
	C172.653748,192.157227 172.643814,192.345337 172.737091,192.358307 
	C172.488098,194.576111 171.983261,196.717422 170.173676,198.699951 
	C169.895691,198.942459 169.969208,198.976379 169.953125,198.939224 
	C169.579178,199.415283 169.513184,200.042953 169.012177,200.765442 
	C168.753723,200.929520 168.861877,200.895172 168.837555,200.843903 
	C168.397400,203.564468 166.301697,205.028229 164.005325,206.732239 
	C163.386322,206.939056 163.103470,207.058777 162.631363,207.325867 
	C162.169754,207.358963 161.927475,207.315720 161.424774,207.010040 
	C160.076569,203.577148 162.258896,201.501663 163.835083,199.349945 
	C165.377441,197.244339 166.960831,195.226135 167.591644,192.256485 
	C167.788803,191.433670 167.958313,190.980820 168.264618,190.192581 
	C168.575531,186.943832 168.677826,184.046127 167.991302,180.827209 
	C167.853638,179.545792 167.629318,178.660324 166.812698,177.626862 
	C166.189240,172.310806 162.048157,169.029358 160.753326,164.150116 
	C161.130524,163.714462 161.355392,163.614914 161.927032,163.641190 
	C166.847198,166.136261 170.065964,169.832520 171.812454,174.567154 
	C172.929794,177.596146 173.955032,178.385376 177.406631,177.423752 
	C183.268921,175.790497 189.418259,175.187378 195.553635,178.399185 
	C196.826981,178.967865 197.914322,179.030289 198.796539,180.274521 
	C199.280014,181.713318 199.130493,182.717773 198.072205,183.805786 
z"/>
<path fill="#29241A" opacity="1.000000" stroke="none" 
	d="
M282.852051,218.195297 
	C280.948578,210.959625 282.352509,206.331558 287.127930,203.359283 
	C290.936157,200.988998 294.294800,201.558289 297.140808,205.506424 
	C294.085022,204.998123 291.319733,204.672668 289.288727,207.080505 
	C286.937103,209.868408 286.932068,213.094864 287.273682,216.487457 
	C288.009094,223.790649 285.648773,228.025421 280.223022,229.465805 
	C279.425354,229.677551 278.642761,229.784195 277.613159,228.833694 
	C280.317871,225.878799 284.573181,223.636734 282.852051,218.195297 
z"/>
<path fill="#DD8B5B" opacity="1.000000" stroke="none" 
	d="
M213.818176,227.917923 
	C206.596954,232.003845 198.472351,232.745544 190.299240,232.812775 
	C180.987427,232.889389 171.662842,232.921249 162.395416,231.565323 
	C159.299850,231.112381 156.006287,230.661560 153.373047,233.897919 
	C154.070129,229.631607 156.619751,228.159668 162.462967,229.168686 
	C169.999710,230.470154 177.554153,231.319870 185.209900,230.996750 
	C193.812714,230.633652 202.444412,230.466049 210.715942,227.606384 
	C211.677536,227.273926 212.627884,227.005493 213.818176,227.917923 
z"/>
<path fill="#A35E37" opacity="1.000000" stroke="none" 
	d="
M137.246689,213.645752 
	C132.180130,216.979095 130.995956,223.265442 125.460930,227.599731 
	C126.567375,220.959183 124.619804,215.018982 129.706909,210.205734 
	C130.322235,209.668243 130.716400,209.449036 131.518982,209.363876 
	C132.893066,209.913467 133.758301,210.752731 135.286285,211.060822 
	C136.567871,211.572159 137.201889,212.236526 137.246689,213.645752 
z"/>
<path fill="#DD8B5B" opacity="1.000000" stroke="none" 
	d="
M175.042984,184.700653 
	C179.666519,178.925949 186.421555,178.216003 195.859924,182.714294 
	C195.166000,189.037277 196.119476,194.782990 199.086349,200.573334 
	C194.343704,198.671082 195.453766,193.658234 194.103867,189.808533 
	C193.552582,188.236374 194.380829,185.624237 191.143311,187.487595 
	C190.048920,188.117462 189.380402,187.215485 189.135498,186.057938 
	C188.862030,184.765335 190.566177,182.729492 188.256271,182.269165 
	C185.696167,181.758987 182.906158,181.372421 180.470459,182.757980 
	C178.858871,183.674744 177.309875,184.560318 175.042984,184.700653 
z"/>
<path fill="#362A1D" opacity="1.000000" stroke="none" 
	d="
M175.686569,217.591675 
	C170.163361,216.335587 168.427963,212.375015 171.140167,207.927841 
	C172.780014,205.238968 175.015579,203.273438 178.800751,202.687912 
	C173.728409,207.002914 172.858475,211.833054 175.686569,217.591675 
z"/>
<path fill="#DD8B5B" opacity="1.000000" stroke="none" 
	d="
M184.841019,277.248932 
	C194.647614,278.239655 203.774368,276.964386 212.403412,271.385315 
	C212.822586,272.308716 212.723831,273.373230 211.763748,273.917999 
	C203.346939,278.693634 194.518204,281.112701 184.856064,278.385803 
	C184.723038,278.348236 184.731583,277.809143 184.841019,277.248932 
z"/>
<path fill="#C17247" opacity="1.000000" stroke="none" 
	d="
M255.455948,213.739044 
	C258.188477,218.233261 253.646271,219.655441 252.134018,222.662674 
	C250.451889,224.317703 248.877640,225.454742 246.360703,224.219925 
	C246.043945,223.207596 246.056335,222.458130 246.073013,221.333862 
	C245.374573,219.454559 246.480743,218.772491 247.736221,217.854340 
	C249.609619,217.502701 250.525864,216.616135 251.272110,215.237274 
	C252.060699,213.780151 253.320709,212.784821 255.455948,213.739044 
z"/>
<path fill="#BA6B40" opacity="1.000000" stroke="none" 
	d="
M137.725861,216.879333 
	C138.913666,216.352859 139.937424,216.551971 139.712769,217.572845 
	C138.910568,221.218323 136.638519,224.013046 133.862381,226.384872 
	C133.465454,226.723984 132.499146,226.825439 132.045898,226.578613 
	C131.162628,226.097656 131.491287,225.209457 131.802628,224.419067 
	C132.981873,221.425400 135.127731,219.181595 137.725861,216.879333 
z"/>
<path fill="#D58052" opacity="1.000000" stroke="none" 
	d="
M249.072510,218.637482 
	C247.740021,219.111359 246.926804,219.588974 246.219269,220.707428 
	C245.308319,220.973221 244.539307,220.987335 243.387115,221.002655 
	C240.149368,219.851395 241.156982,217.743896 241.882111,215.410431 
	C242.672485,214.200485 243.618103,213.808441 244.785522,213.086975 
	C246.365158,211.983643 246.768341,212.664764 246.525589,213.850983 
	C246.224045,215.324387 246.852203,215.859756 248.487000,215.950439 
	C249.619446,216.593994 249.696548,217.417694 249.072510,218.637482 
z"/>
<path fill="#C17248" opacity="1.000000" stroke="none" 
	d="
M242.776459,215.016327 
	C243.203171,216.994049 241.725723,218.618729 242.871643,220.705139 
	C242.220688,224.307755 240.874054,226.440582 237.106003,223.456223 
	C236.722198,218.964981 239.149963,216.571381 242.776459,215.016327 
z"/>
<path fill="#DD8B5B" opacity="1.000000" stroke="none" 
	d="
M137.578354,213.998215 
	C136.595184,213.485123 136.040695,212.973083 135.242157,212.313110 
	C134.615585,211.672012 134.478683,211.118118 134.827637,210.129730 
	C140.564789,212.013794 146.064575,214.256638 152.609802,213.178055 
	C150.815567,216.483322 147.597107,214.927536 144.891159,214.626282 
	C142.600067,214.371216 140.326309,213.981339 137.578354,213.998215 
z"/>
<path fill="#9A5A34" opacity="1.000000" stroke="none" 
	d="
M249.005096,219.076614 
	C248.802368,218.192917 248.857956,217.447922 248.853241,216.332062 
	C249.082657,213.108810 251.071442,211.813522 253.505066,211.178085 
	C254.946472,210.801712 256.061554,211.410751 255.776917,213.600861 
	C252.054657,213.863556 252.824799,219.202011 249.005096,219.076614 
z"/>
<path fill="#83512E" opacity="1.000000" stroke="none" 
	d="
M243.316574,215.056976 
	C240.376083,217.058807 238.895874,219.829681 237.136902,222.811859 
	C235.326920,218.305634 237.626556,215.098969 244.674683,212.873413 
	C244.551270,213.494110 244.054306,214.171860 243.316574,215.056976 
z"/>
<path fill="#DD8B5B" opacity="1.000000" stroke="none" 
	d="
M152.805191,234.228455 
	C152.198700,238.324677 153.163162,242.333572 154.926453,246.617142 
	C151.064148,243.964386 150.044418,238.821533 152.805191,234.228455 
z"/>
<path fill="#DD8B5B" opacity="1.000000" stroke="none" 
	d="
M132.199356,210.130615 
	C131.429474,210.191803 131.020752,210.146027 130.306641,210.057175 
	C129.940628,207.462646 126.791344,206.331284 127.074539,203.256256 
	C129.034332,204.680405 130.984009,206.474747 133.140991,208.530853 
	C133.248291,209.307022 132.985703,209.717377 132.199356,210.130615 
z"/>
<path fill="#DD8B5B" opacity="1.000000" stroke="none" 
	d="
M164.076385,206.865143 
	C164.315201,204.263123 167.123062,203.377228 168.533157,200.975510 
	C169.527252,204.370850 167.407059,205.905762 164.076385,206.865143 
z"/>
<path fill="#D58052" opacity="1.000000" stroke="none" 
	d="
M246.124969,224.302277 
	C247.756607,223.641235 249.481644,223.325394 251.582855,222.979736 
	C250.890381,226.373016 249.030182,227.119278 246.124969,224.302277 
z"/>
<path fill="#DD8B5B" opacity="1.000000" stroke="none" 
	d="
M170.264984,198.860016 
	C170.682266,196.910706 171.468811,194.878952 172.542877,192.609222 
	C172.946457,194.797440 173.351715,197.322754 170.264984,198.860016 
z"/>
<path fill="#DD8B5B" opacity="1.000000" stroke="none" 
	d="
M172.966431,191.907837 
	C173.159943,189.872025 173.666138,187.586807 174.452515,185.053787 
	C175.160843,187.283722 175.192368,189.677353 172.966431,191.907837 
z"/>
<path fill="#DD8B5B" opacity="1.000000" stroke="none" 
	d="
M160.219559,259.111572 
	C161.233398,259.896576 162.187256,261.073883 163.258850,262.559082 
	C161.158615,262.841797 160.034637,261.770203 160.219559,259.111572 
z"/>
<path fill="#DD8B5B" opacity="1.000000" stroke="none" 
	d="
M155.106720,247.876251 
	C155.739349,248.744019 156.349655,250.018280 156.970505,251.646484 
	C154.940567,251.479645 155.016693,249.879059 155.106720,247.876251 
z"/>
<path fill="#DD8B5B" opacity="1.000000" stroke="none" 
	d="
M219.945038,226.101868 
	C219.329910,226.667023 218.498672,226.970963 217.331390,227.258133 
	C217.335312,225.659668 217.964218,224.641907 219.945038,226.101868 
z"/>
<path fill="#DD8B5B" opacity="1.000000" stroke="none" 
	d="
M158.097229,255.236755 
	C158.816360,255.935425 159.506866,257.023987 160.271011,258.428986 
	C158.134186,258.765289 158.021042,257.254608 158.097229,255.236755 
z"/>
<path fill="#DD8B5B" opacity="1.000000" stroke="none" 
	d="
M164.087494,264.167297 
	C164.812576,264.597626 165.540222,265.414276 166.394592,266.539429 
	C165.007172,266.828827 164.136322,266.128143 164.087494,264.167297 
z"/>
<path fill="#DD8B5B" opacity="1.000000" stroke="none" 
	d="
M155.077499,212.978958 
	C155.405151,212.516312 155.915527,212.260742 156.714157,211.979553 
	C156.758362,212.840683 156.625916,213.885223 155.077499,212.978958 
z"/>
<path fill="#DD8B5B" opacity="1.000000" stroke="none" 
	d="
M125.019608,200.085587 
	C125.547752,200.332870 125.868622,200.773514 126.247849,201.483337 
	C125.368408,201.707245 124.209518,201.886078 125.019608,200.085587 
z"/>
<path fill="#DD8B5B" opacity="1.000000" stroke="none" 
	d="
M157.141190,252.863724 
	C157.460388,253.099915 157.795120,253.687958 158.157303,254.620178 
	C157.842087,254.381439 157.499405,253.798492 157.141190,252.863724 
z"/>
<path fill="#2E281F" opacity="1.000000" stroke="none" 
	d="
M162.086914,207.097229 
	C162.002640,207.814758 161.593246,208.227310 160.913635,208.755142 
	C160.443665,208.771591 160.243896,208.672745 159.833282,208.313568 
	C159.505630,207.294952 159.867966,206.779022 160.788422,206.283646 
	C161.326950,206.386963 161.544357,206.589600 162.086914,207.097229 
z"/>
<path fill="#DC8A5B" opacity="1.000000" stroke="none" 
	d="
M248.963928,201.743301 
	C248.907822,201.341248 249.120041,200.764862 249.574234,199.994965 
	C249.621552,200.390610 249.426910,200.979797 248.963928,201.743301 
z"/>
<path fill="#DD8B5B" opacity="1.000000" stroke="none" 
	d="
M169.013092,200.757812 
	C168.991089,200.380173 169.228455,199.830841 169.701447,199.091797 
	C169.715515,199.463409 169.493988,200.024765 169.013092,200.757812 
z"/>
<path fill="#2E281F" opacity="1.000000" stroke="none" 
	d="
M160.441101,209.136398 
	C160.012527,208.944641 159.695389,208.708755 159.190338,208.243591 
	C159.002411,208.014328 159.224106,207.667862 159.426575,207.631714 
	C159.803711,207.802750 159.978394,208.009964 160.398239,208.543793 
	C160.643417,208.870438 160.552536,209.092270 160.441101,209.136398 
z"/>
<path fill="#DD8B5B" opacity="1.000000" stroke="none" 
	d="
M126.212662,202.052032 
	C126.380714,202.024750 126.667671,202.231308 127.036148,202.702408 
	C126.855629,202.739914 126.593597,202.512894 126.212662,202.052032 
z"/>
<path fill="#362B16" opacity="1.000000" stroke="none" 
	d="
M341.423981,178.456253 
	C337.436096,177.938171 333.798645,177.567261 330.256744,176.771225 
	C328.737183,176.429718 326.277710,176.409302 326.881775,173.292084 
	C327.121552,172.891708 327.248322,172.772018 327.636261,172.639450 
	C328.684509,172.711548 329.471588,172.796539 330.654297,172.870163 
	C334.510803,172.873322 338.148438,170.578018 341.588898,174.048737 
	C343.557495,175.660797 346.482391,174.839844 347.370544,177.635818 
	C345.676727,179.173111 343.680206,178.356903 341.423981,178.456253 
z"/>
<path fill="#362A16" opacity="1.000000" stroke="none" 
	d="
M55.279778,127.796127 
	C61.806675,127.843201 67.359695,131.083527 73.335014,132.894562 
	C74.271851,133.178513 75.275261,133.753891 74.897820,134.987885 
	C74.537666,136.165314 73.273903,136.349808 72.424835,136.033859 
	C66.640778,133.881577 60.339439,133.125488 54.901264,129.307495 
	C54.897514,128.655029 55.038952,128.343719 55.279778,127.796127 
z"/>
<path fill="#3A2E17" opacity="1.000000" stroke="none" 
	d="
M310.031494,147.412445 
	C310.939941,146.721512 311.808289,146.417145 312.907776,145.963745 
	C317.411560,145.313858 321.681793,144.791077 325.958466,144.327332 
	C327.056885,144.208237 328.590271,143.731476 328.966217,145.174515 
	C329.433868,146.969315 327.679077,147.292664 326.481750,147.550644 
	C322.601501,148.386566 318.685699,149.057541 314.390503,149.919327 
	C312.467743,149.643707 310.011353,150.892609 310.031494,147.412445 
z"/>
<path fill="#362A15" opacity="1.000000" stroke="none" 
	d="
M78.627762,107.545471 
	C82.866905,109.274254 86.772293,111.018608 90.643158,112.836441 
	C91.788925,113.374504 93.415802,113.950737 92.493858,115.652267 
	C91.813843,116.907280 90.418709,116.426476 89.394135,115.900703 
	C85.297020,113.798233 80.601997,113.032158 76.513573,110.102951 
	C76.298508,108.637520 76.930771,107.799622 78.627762,107.545471 
z"/>
<path fill="#473519" opacity="1.000000" stroke="none" 
	d="
M117.535156,102.494919 
	C113.181679,102.407295 110.704918,98.734413 106.832077,96.924362 
	C105.683495,96.122086 104.747513,95.475334 104.035255,94.638222 
	C103.550346,94.068298 102.976509,93.149544 103.877457,92.506592 
	C104.286774,92.214478 105.207291,92.195862 105.650139,92.462074 
	C110.084175,95.127441 115.070801,97.140816 117.535156,102.494919 
z"/>
<path fill="#D88931" opacity="1.000000" stroke="none" 
	d="
M341.843506,174.050491 
	C338.478790,174.011917 335.155273,173.575119 331.440857,172.998566 
	C336.554108,171.837067 334.166321,167.914825 334.004333,164.408936 
	C338.155121,165.974289 341.137482,168.899948 341.843506,174.050491 
z"/>
<path fill="#47351A" opacity="1.000000" stroke="none" 
	d="
M290.925354,126.199860 
	C289.595123,126.779556 288.562408,127.176849 287.269653,127.784920 
	C285.889465,127.980835 284.528931,128.362198 284.110748,126.841675 
	C283.793121,125.686691 284.726166,125.000328 285.586121,124.546776 
	C287.040161,123.779884 288.525909,122.799538 290.091339,122.583740 
	C292.252533,122.285812 295.732788,120.138687 296.340698,122.113098 
	C297.267273,125.122650 293.063110,124.719688 290.925354,126.199860 
z"/>
<path fill="#57422E" opacity="1.000000" stroke="none" 
	d="
M198.759018,179.994293 
	C197.524658,179.994843 196.662781,180.039124 195.978790,178.935303 
	C198.471786,177.781952 198.180191,175.056320 199.555313,172.971649 
	C200.276794,172.867966 200.726929,173.111053 201.382599,173.727448 
	C202.425491,176.691269 201.537231,178.646820 198.759018,179.994293 
z"/>
<path fill="#5F5045" opacity="1.000000" stroke="none" 
	d="
M162.221924,163.425217 
	C162.025772,163.819931 161.777771,163.872849 161.154419,163.987381 
	C158.843063,165.371292 157.624634,164.456848 156.666504,162.364014 
	C156.749146,161.650864 156.832230,161.303452 157.011993,160.429108 
	C159.122803,160.442352 161.115585,161.016464 162.221924,163.425217 
z"/>
<path fill="#46392E" opacity="1.000000" stroke="none" 
	d="
M201.227386,173.856354 
	C200.709274,173.733643 200.413895,173.466019 199.954010,172.946121 
	C199.824432,172.393463 199.917542,172.112366 200.208252,171.677734 
	C200.588821,171.703110 200.830002,171.901321 201.422501,172.409088 
	C201.754257,173.078384 201.642151,173.407959 201.227386,173.856354 
z"/>
<path fill="#3E2E18" opacity="1.000000" stroke="none" 
	d="
M337.027771,201.010040 
	C338.407562,201.845703 340.165192,202.196777 339.529480,203.909546 
	C338.953369,205.461655 337.251770,205.352661 336.103027,204.813339 
	C332.234283,202.997025 328.452942,200.990402 324.680450,198.977341 
	C324.001892,198.615234 323.249451,197.929520 323.624756,196.985626 
	C324.014587,196.005219 324.993011,196.233185 325.758667,196.369888 
	C329.720367,197.077103 333.151581,199.104843 337.027771,201.010040 
z"/>
<path fill="#D88931" opacity="1.000000" stroke="none" 
	d="
M327.763550,172.579376 
	C327.897461,172.626541 327.481628,172.902100 327.238220,172.956741 
	C327.113678,172.712082 327.325317,172.552353 327.763550,172.579376 
z"/>
<path fill="#20231C" opacity="1.000000" stroke="none" 
	d="
M217.382416,206.332031 
	C213.272903,205.943604 211.237183,203.255142 208.864395,200.499924 
	C208.482544,200.353638 208.282074,200.502075 207.734741,200.507141 
	C205.726135,198.666061 205.342789,196.389587 204.585876,193.883270 
	C204.357925,190.165955 203.034088,186.943314 203.572357,183.150116 
	C203.694702,181.978363 203.994278,181.279556 204.730957,180.368744 
	C205.153519,179.894806 205.332504,179.714600 205.789383,179.273819 
	C207.234253,176.825928 208.149323,174.451172 209.612839,172.484528 
	C215.231537,164.934158 225.302414,164.793015 230.894119,172.383408 
	C237.046768,180.735260 237.575577,189.830658 233.299683,199.250076 
	C231.222855,203.825180 226.974579,204.769485 222.357666,205.843964 
	C220.695770,206.915146 219.208862,206.355392 217.382416,206.332031 
z"/>
<path fill="#D78B5F" opacity="1.000000" stroke="none" 
	d="
M200.935120,174.333496 
	C201.194336,173.726669 201.384003,173.452103 201.673767,172.948090 
	C202.638763,171.771637 203.503677,170.824631 204.668488,169.727692 
	C204.919189,171.377945 204.869995,173.178146 204.821640,175.420929 
	C204.487595,180.279266 203.573761,184.667038 204.268127,189.500763 
	C204.483002,190.612701 204.526749,191.365860 204.807129,192.449875 
	C205.025970,193.762268 205.050964,194.746735 205.752075,195.931732 
	C205.954285,197.498260 206.491013,198.685150 206.016571,200.282959 
	C205.684631,200.808701 205.511673,200.991898 204.971008,201.262299 
	C199.880829,196.792282 198.011948,191.082733 197.795563,184.334106 
	C197.895523,182.931213 198.070007,181.870010 198.305450,180.408844 
	C199.199448,178.227829 200.032501,176.446793 200.935120,174.333496 
z"/>
<path fill="#E4C4B7" opacity="1.000000" stroke="none" 
	d="
M203.574310,190.885406 
	C202.443024,186.028610 203.061798,181.245468 204.630203,176.196747 
	C204.889908,176.687332 204.957352,177.511124 205.038498,178.748230 
	C205.222916,179.270508 205.393631,179.379486 205.727402,179.744751 
	C205.825745,180.555511 205.761017,181.109970 205.522095,181.886749 
	C203.048889,184.733521 205.788422,188.137482 203.574310,190.885406 
z"/>
<path fill="#D7BBB2" opacity="1.000000" stroke="none" 
	d="
M208.049835,204.363022 
	C207.492203,204.356613 206.910782,203.876770 206.182144,203.147186 
	C205.630402,202.432236 205.489456,201.897293 205.866623,200.940460 
	C206.638367,200.292786 207.193405,200.149872 208.223328,200.174515 
	C208.659027,200.189941 208.662262,200.209717 208.672638,200.207458 
	C208.464020,201.433334 208.245026,202.661453 208.049835,204.363022 
z"/>
<path fill="#C9AFA9" opacity="1.000000" stroke="none" 
	d="
M217.226593,206.440109 
	C218.369675,206.077301 219.772644,205.950317 221.593262,205.900055 
	C220.685013,207.389221 219.112473,207.205643 217.226593,206.440109 
z"/>
<path fill="#D7BBB2" opacity="1.000000" stroke="none" 
	d="
M206.008362,179.767288 
	C205.658463,179.862305 205.457962,179.687454 205.170593,179.319031 
	C205.220154,179.128311 205.388077,179.095093 205.811630,179.037567 
	C206.086945,179.186661 206.106598,179.360092 206.008362,179.767288 
z"/>
<path fill="#DD8B5B" opacity="1.000000" stroke="none" 
	d="
M123.921860,176.187454 
	C123.833382,178.119934 123.357239,180.128799 122.822449,182.521851 
	C122.697456,183.139114 122.631126,183.372238 122.304230,183.351807 
	C122.463219,180.803284 120.823875,178.059265 123.921860,176.187454 
z"/>
<path fill="#DD8B5B" opacity="1.000000" stroke="none" 
	d="
M131.204681,165.184402 
	C130.924606,166.026550 130.260834,166.898682 129.322037,167.948898 
	C129.070419,166.810226 129.154755,165.530579 131.204681,165.184402 
z"/>
<path fill="#DD8B5B" opacity="1.000000" stroke="none" 
	d="
M125.947189,172.232513 
	C125.970512,172.609299 125.741280,173.172958 125.284210,173.942230 
	C125.269127,173.571701 125.481888,172.995544 125.947189,172.232513 
z"/>
<path fill="#A7704D" opacity="1.000000" stroke="none" 
	d="
M122.042068,183.324051 
	C122.043671,183.098282 122.402641,182.997849 122.583221,182.951935 
	C122.762108,183.389938 122.760422,183.873871 122.631042,184.699707 
	C122.321526,184.849243 122.194649,184.625702 122.063828,184.185486 
	C122.004959,184.000000 122.040474,183.549820 122.042068,183.324051 
z"/>
<path fill="#DD8B5B" opacity="1.000000" stroke="none" 
	d="
M134.042908,162.246307 
	C134.080124,162.428268 133.839218,162.782471 133.333755,163.327209 
	C133.301071,163.151352 133.532944,162.784958 134.042908,162.246307 
z"/>
<path fill="#D78B5F" opacity="1.000000" stroke="none" 
	d="
M206.001587,200.828079 
	C206.096970,201.424881 206.081421,201.845688 206.050415,202.582001 
	C205.635635,202.545593 205.236328,202.193710 204.720154,201.595657 
	C204.751190,201.215347 204.899109,201.081192 205.268097,200.744934 
	C205.489166,200.542816 205.890625,200.652100 206.001587,200.828079 
z"/>
<path fill="#432E1F" opacity="1.000000" stroke="none" 
	d="
M178.963318,272.099670 
	C178.960632,272.834869 178.867737,273.210785 178.635498,274.151123 
	C176.056198,274.414642 174.257431,272.817047 172.040283,271.355103 
	C172.787674,271.017853 173.750565,270.955170 175.192505,270.840942 
	C177.030670,270.123596 178.038559,270.640198 178.963318,272.099670 
z"/>
<path fill="#DE8A5B" opacity="1.000000" stroke="none" 
	d="
M268.985901,172.406891 
	C270.102417,172.879333 270.004120,174.107391 270.032928,175.656494 
	C269.051819,175.135147 269.002319,173.955429 268.985901,172.406891 
z"/>
<path fill="#D96641" opacity="1.000000" stroke="none" 
	d="
M179.413116,272.556030 
	C178.105728,271.921539 177.157959,271.384094 175.940857,270.818054 
	C168.372055,265.296844 168.850922,254.347809 177.582687,248.471069 
	C189.797150,240.250381 206.568604,237.379944 221.655975,245.760925 
	C225.756699,248.038879 226.435928,250.101425 223.693298,254.255920 
	C212.629669,271.014893 197.427704,277.560303 179.413116,272.556030 
z"/>
<path fill="#EBD6D3" opacity="1.000000" stroke="none" 
	d="
M156.219131,161.920990 
	C157.840347,162.662323 159.014633,163.326370 160.483978,164.019714 
	C164.437607,167.338867 166.894531,171.397720 168.583008,176.404449 
	C167.920242,177.639008 168.666977,178.082779 169.395660,178.799469 
	C170.758026,182.721191 169.861740,186.470886 169.660706,190.642700 
	C169.464035,191.276733 169.432800,191.469864 169.223907,191.896545 
	C168.126923,197.536209 164.565598,201.442154 161.259796,205.881409 
	C160.688965,206.493546 160.268356,206.802750 159.738403,207.353760 
	C159.629028,207.595551 159.227890,207.673508 159.115143,207.843918 
	C145.415878,212.878647 134.934143,209.745056 128.128662,198.109863 
	C129.179840,196.475784 130.604919,196.135788 131.835266,194.904053 
	C133.502838,194.048660 134.927475,193.742004 136.800415,194.062103 
	C138.260818,194.618362 139.244919,195.326508 139.869812,196.298981 
	C142.676117,200.666245 147.295013,200.886887 151.995422,201.763077 
	C152.721039,202.069138 153.003052,202.779770 153.862976,202.085175 
	C158.607468,199.672821 162.223160,196.565826 164.262939,191.465378 
	C165.455719,188.753677 165.568558,186.337982 164.489838,183.553619 
	C164.019928,181.087494 163.660110,178.960739 162.960541,176.894455 
	C161.503387,172.590698 158.804428,169.734009 154.145020,169.108887 
	C149.235519,168.450180 145.313736,169.933548 142.653763,174.341599 
	C141.371948,176.465790 140.207535,178.729187 137.717407,180.333313 
	C134.645264,181.257416 132.785324,177.504486 129.515533,178.956299 
	C128.039597,178.510269 127.472679,177.762573 127.761612,176.239578 
	C133.556503,164.502716 143.158417,157.238449 156.219131,161.920990 
z"/>
<path fill="#EAD2CE" opacity="1.000000" stroke="none" 
	d="
M137.120819,194.763184 
	C135.473709,195.331894 134.085236,195.656555 132.338074,195.997620 
	C131.023468,196.998947 129.928909,197.522049 128.238647,196.928497 
	C127.765816,196.689758 127.589317,196.570557 127.165024,196.249695 
	C126.917229,196.048035 126.986580,196.036240 126.975800,196.069717 
	C126.843666,195.943558 126.722305,195.783920 126.493042,195.343475 
	C126.292160,194.892670 126.199173,194.722656 126.116394,194.262131 
	C126.801224,192.061234 125.882126,190.316406 125.375473,188.253387 
	C125.144203,187.552185 125.096596,187.107269 125.122650,186.332855 
	C125.759071,185.348831 125.846466,184.615112 125.537186,183.524109 
	C125.509926,182.828583 125.594940,182.447983 125.822403,181.794800 
	C125.876160,181.502472 125.780533,181.215591 125.885910,181.107147 
	C128.240997,178.731644 130.450455,179.367401 132.592285,181.141357 
	C134.409988,182.646851 135.538651,184.319595 133.782440,186.656372 
	C132.270020,188.668747 133.950974,189.568893 135.577515,190.710602 
	C136.087112,190.994507 136.276199,191.135788 136.698364,191.546524 
	C137.183273,192.223404 137.368134,192.659729 137.526306,193.475861 
	C137.498215,194.060135 137.438828,194.289627 137.120819,194.763184 
z"/>
<path fill="#E8D2CE" opacity="1.000000" stroke="none" 
	d="
M136.329285,191.733582 
	C133.959915,192.134506 132.479584,191.192322 131.281235,189.722610 
	C130.358871,188.591385 129.039261,187.392929 129.697418,185.856049 
	C130.368805,184.288239 132.157639,186.145828 133.466080,185.008881 
	C132.480209,181.654327 129.933014,180.867447 126.388947,180.999420 
	C125.869774,179.266815 126.720032,177.840530 127.704498,176.142014 
	C128.137527,176.750366 128.442917,177.498306 129.632538,177.912720 
	C133.374039,178.112823 135.845535,179.778320 137.682434,183.145813 
	C138.057495,186.277618 138.614685,189.052094 136.329285,191.733582 
z"/>
<path fill="#EBD6D3" opacity="1.000000" stroke="none" 
	d="
M125.127243,188.378433 
	C127.909882,189.227432 127.015823,191.363739 126.335999,193.682709 
	C125.208542,192.349350 125.051682,190.571686 125.127243,188.378433 
z"/>
<path fill="#DE8A5B" opacity="1.000000" stroke="none" 
	d="
M131.975616,210.534698 
	C132.149460,209.888885 132.460739,209.540222 133.060150,208.992096 
	C133.814728,208.981842 134.281143,209.171066 134.907776,209.558105 
	C135.049362,210.290192 135.030731,210.824448 135.005112,211.761948 
	C133.891068,212.035217 132.772003,211.931320 131.975616,210.534698 
z"/>
<path fill="#EBD6D3" opacity="1.000000" stroke="none" 
	d="
M125.815628,183.676117 
	C126.786591,184.772430 126.754074,185.409821 125.445900,185.941681 
	C125.163338,185.556335 125.130356,185.109314 125.183121,184.335114 
	C125.389153,183.788757 125.509438,183.569580 125.815628,183.676117 
z"/>
<path fill="#EBD6D3" opacity="1.000000" stroke="none" 
	d="
M126.940933,196.343750 
	C127.102119,196.041962 127.287010,196.035889 127.749359,196.032791 
	C128.347031,196.406418 128.479828,196.838684 128.262787,197.623657 
	C128.075211,197.923019 127.997643,197.999634 127.958458,198.037537 
	C127.601059,197.596802 127.282852,197.118134 126.940933,196.343750 
z"/>
<path fill="#E8D2CE" opacity="1.000000" stroke="none" 
	d="
M125.986679,183.585693 
	C126.001526,184.001831 125.635231,184.009827 125.452049,184.008881 
	C125.329758,183.349289 125.390648,182.690613 125.663849,181.767212 
	C125.908051,182.058167 125.939934,182.613846 125.986679,183.585693 
z"/>
<path fill="#EBD6D3" opacity="1.000000" stroke="none" 
	d="
M126.385925,195.277710 
	C126.557083,195.267517 126.699791,195.491013 126.889145,195.918182 
	C126.681282,195.985870 126.488510,195.782394 126.385925,195.277710 
z"/>
<path fill="#E8D2CE" opacity="1.000000" stroke="none" 
	d="
M169.617096,178.768188 
	C168.540894,178.770767 166.855301,178.981033 168.454193,176.913559 
	C169.028763,177.356400 169.340515,177.938004 169.617096,178.768188 
z"/>
<path fill="#E8D2CE" opacity="1.000000" stroke="none" 
	d="
M169.214661,192.004120 
	C169.059784,191.867065 169.131531,191.621017 169.378403,191.237778 
	C169.624115,191.371918 169.586716,191.636765 169.214661,192.004120 
z"/>
<path fill="#E6D1CF" opacity="1.000000" stroke="none" 
	d="
M215.051437,191.004898 
	C215.024673,189.955414 215.146973,188.830490 214.858414,188.712769 
	C210.166580,186.798859 211.004608,183.766205 212.791519,180.226990 
	C213.294739,179.230316 213.694565,178.101135 214.671066,178.659882 
	C217.362335,180.199829 218.183594,177.768356 220.274567,175.486359 
	C219.625275,180.535034 221.102539,182.179749 225.355301,181.727142 
	C227.463318,181.502777 229.338028,183.370636 226.444916,185.468811 
	C225.378326,186.242325 225.042984,187.185669 224.632965,188.275040 
	C223.745895,190.631943 224.511765,195.017776 219.363876,192.178009 
	C218.007828,191.429962 217.596542,194.764069 215.610809,195.158936 
	C213.762970,194.308243 215.152817,192.685242 215.051437,191.004898 
z"/>
<path fill="#D7BBB2" opacity="1.000000" stroke="none" 
	d="
M203.142441,191.213104 
	C205.090378,188.424164 203.042145,185.157028 205.044220,182.357025 
	C204.644943,185.853378 205.475983,189.499939 206.003387,193.585373 
	C205.808044,194.142288 205.661469,194.276566 205.219177,194.372925 
	C204.638641,194.055145 204.398392,193.741684 203.961380,193.224884 
	C203.519928,192.538864 203.326630,192.017380 203.142441,191.213104 
z"/>
<path fill="#F0DBD8" opacity="1.000000" stroke="none" 
	d="
M204.755035,194.207184 
	C205.114655,193.868729 205.282410,193.898071 205.702377,193.967712 
	C206.776657,195.867355 207.598709,197.726685 208.539886,199.888000 
	C208.107681,200.422791 207.556320,200.655624 206.558746,200.946259 
	C206.112534,201.004059 205.804108,200.767990 205.646637,200.655396 
	C205.276855,199.340195 205.064529,198.137589 204.819458,196.565887 
	C204.570816,195.675690 204.496338,195.135056 204.755035,194.207184 
z"/>
<path fill="#E4C4B7" opacity="1.000000" stroke="none" 
	d="
M204.780304,193.656372 
	C204.937012,194.365723 204.927109,194.892059 204.851959,195.807602 
	C204.460846,195.374451 204.134995,194.552078 203.761200,193.395020 
	C204.047455,193.123825 204.347595,193.261475 204.780304,193.656372 
z"/>
<path fill="#20231C" opacity="1.000000" stroke="none" 
	d="
M136.072403,192.157867 
	C135.996017,189.351959 136.039581,186.704559 136.092499,183.618134 
	C136.684891,182.355911 136.344635,181.389618 136.735107,180.236069 
	C137.860275,178.397720 138.775940,176.831070 139.672394,175.253494 
	C143.609024,168.325836 147.794891,165.784790 153.811279,166.665222 
	C160.612885,167.660568 164.217255,171.813492 165.392532,178.370285 
	C165.624237,179.662949 165.839172,180.958618 166.189835,182.647842 
	C166.679321,185.727371 166.449844,188.422409 166.334381,191.544235 
	C164.163467,197.567261 160.494415,201.440842 154.275726,203.157990 
	C153.957001,203.361313 153.518051,203.399490 153.321213,203.498413 
	C146.446991,203.662613 140.586365,202.123688 137.078674,195.272675 
	C136.867035,194.814835 136.871857,194.622467 136.731537,194.180634 
	C136.518753,193.721252 136.451157,193.511353 136.242310,193.002380 
	C136.101074,192.703278 136.192352,192.316360 136.072403,192.157867 
z"/>
<path fill="#D5B5AD" opacity="1.000000" stroke="none" 
	d="
M136.663422,179.796570 
	C136.819473,180.865829 136.685486,181.762268 136.326691,182.918900 
	C135.447739,180.126404 132.279160,180.092453 130.186981,178.228058 
	C132.817429,175.626999 134.421478,178.312271 136.663422,179.796570 
z"/>
<path fill="#E8D2CE" opacity="1.000000" stroke="none" 
	d="
M166.411774,191.651535 
	C166.203842,189.293106 166.199738,186.610947 166.256714,183.485779 
	C167.485214,185.766068 167.174850,188.542465 166.411774,191.651535 
z"/>
<path fill="#E8D2CE" opacity="1.000000" stroke="none" 
	d="
M128.433212,197.936066 
	C128.057541,197.503510 128.039871,197.084000 128.024521,196.350128 
	C129.144867,196.610779 130.272324,196.359802 131.689789,196.044128 
	C131.632584,197.838547 130.273788,197.995804 128.433212,197.936066 
z"/>
<path fill="#E8D2CE" opacity="1.000000" stroke="none" 
	d="
M153.237656,203.646515 
	C153.124374,203.597336 153.485352,203.283813 153.721176,203.322571 
	C153.820923,203.599777 153.618912,203.711227 153.237656,203.646515 
z"/>
<path fill="#E8D2CE" opacity="1.000000" stroke="none" 
	d="
M136.141846,192.922501 
	C136.406647,192.864471 136.586304,193.115707 136.613220,193.694061 
	C136.399246,193.694870 136.264664,193.431732 136.141846,192.922501 
z"/>
<path fill="#DEC5C0" opacity="1.000000" stroke="none" 
	d="
M150.946823,194.632034 
	C151.349808,188.422638 147.382889,192.154999 144.934174,191.866455 
	C145.189255,188.496109 152.647415,184.333572 144.075653,182.568024 
	C144.475769,180.836304 145.601059,180.956802 146.520599,181.181885 
	C148.976440,181.783005 150.356903,181.344177 150.117798,178.394669 
	C150.008408,177.045364 150.596497,175.635422 152.026688,175.205582 
	C153.503922,174.761627 153.931625,176.203400 154.507141,177.151642 
	C156.217407,179.969559 158.483398,181.944809 163.878174,181.921844 
	C157.896912,185.101639 155.575577,188.112793 162.830124,192.396759 
	C160.323975,192.029510 159.648071,192.074997 159.106247,191.827255 
	C155.980591,190.397980 153.612366,189.732620 153.626221,194.745895 
	C153.633163,197.259506 152.215210,197.742905 150.946823,194.632034 
z"/>
</svg>